<?xml version="1.0" encoding="UTF-8"?>
<svg version="1.1" xmlns="http://www.w3.org/2000/svg" width="1128" height="221">
<path d="M0 0 C0.66 0 1.32 0 2 0 C3.00692527 4.41511736 4.00434223 8.83232925 5 13.25 C5.28617188 14.50425781 5.57234375 15.75851563 5.8671875 17.05078125 C6.27324219 18.85869141 6.27324219 18.85869141 6.6875 20.703125 C6.93886719 21.81333008 7.19023438 22.92353516 7.44921875 24.06738281 C8 27 8 27 8 31 C8.89525391 30.93039063 8.89525391 30.93039063 9.80859375 30.859375 C26.23126244 30.1761139 42.98723287 35.6897309 55.5 46.375 C66.48027333 57.04976654 71.01451133 70.01858547 73 85 C78.28 86.32 83.56 87.64 89 89 C88.67 89.66 88.34 90.32 88 91 C85.41796875 91.8515625 85.41796875 91.8515625 82.1875 92.625 C80.60001953 93.01558594 80.60001953 93.01558594 78.98046875 93.4140625 C76 94 76 94 72 94 C72.061875 95.0725 72.12375 96.145 72.1875 97.25 C72.09439513 110.49416846 66.24362503 122.90053991 57.25 132.4375 C43.34460594 145.41727025 25.16270065 148.57141698 7 151 C6.35216876 153.87456281 5.70667482 156.74961759 5.0625 159.625 C4.88009766 160.43324219 4.69769531 161.24148437 4.50976562 162.07421875 C3.74147812 165.51055925 3.01265771 168.92405373 2.43359375 172.3984375 C2 175 2 175 1 178 C0.34 177.67 -0.32 177.34 -1 177 C-1.68603516 174.83862305 -1.68603516 174.83862305 -2.2890625 172.01171875 C-2.50820313 170.99529297 -2.72734375 169.97886719 -2.953125 168.93164062 C-3.17484375 167.86107422 -3.3965625 166.79050781 -3.625 165.6875 C-3.85445312 164.62853516 -4.08390625 163.56957031 -4.3203125 162.47851562 C-5.22864183 158.199095 -6 154.39215793 -6 150 C-7.29292969 150.03480469 -8.58585938 150.06960937 -9.91796875 150.10546875 C-14.88099212 150.10061731 -19.47555724 149.37218182 -24.3125 148.3125 C-25.14064209 148.13243408 -25.96878418 147.95236816 -26.82202148 147.7668457 C-42.35495486 144.22445924 -56.5295224 136.74420048 -65.6875 123.3125 C-70.23570515 115.62708403 -73.19616484 106.14304443 -73.0625 97.1875 C-73.05347656 96.39730469 -73.04445313 95.60710937 -73.03515625 94.79296875 C-73.02355469 94.20128906 -73.01195312 93.60960938 -73 93 C-73.66386719 92.86722656 -74.32773437 92.73445313 -75.01171875 92.59765625 C-79.34114583 91.73177083 -83.67057292 90.86588542 -88 90 C-88 89.34 -88 88.68 -88 88 C-83.05 87.01 -78.1 86.02 -73 85 C-72.87625 82.64875 -72.87625 82.64875 -72.75 80.25 C-71.36802447 65.68323085 -64.89006101 53.44344285 -53.7265625 44 C-40.32245215 34.1677586 -22.53698626 29.6241594 -6 30 C-5.90203125 29.34257813 -5.8040625 28.68515625 -5.703125 28.0078125 C-4.22040609 18.57465253 -2.12943198 9.3033436 0 0 Z M-32.0234375 58.6171875 C-36.6540622 64.19956115 -39.84704053 70.83330876 -41 78 C-38.16826033 77.56631014 -35.34506607 77.10533822 -32.5234375 76.609375 C-30.16083889 76.20076593 -27.79015639 75.83657886 -25.4140625 75.515625 C-19.38460735 74.72359319 -19.38460735 74.72359319 -14.62109375 71.3671875 C-13.72567556 68.90127143 -13.36058745 66.60309796 -13 64 C-12.73521575 62.61576108 -12.46244341 61.2330367 -12.18359375 59.8515625 C-11.39730404 55.91005576 -10.68515364 51.96028524 -10 48 C-18.18785317 48 -26.26425743 53.1093171 -32.0234375 58.6171875 Z M13 49 C13.6140869 62.51634931 13.6140869 62.51634931 19 74 C21.91528762 74.97098544 24.9354415 75.54036365 27.9375 76.1875 C29.1740332 76.47270508 29.1740332 76.47270508 30.43554688 76.76367188 C31.62567383 77.02567383 31.62567383 77.02567383 32.83984375 77.29296875 C33.56550537 77.4530542 34.29116699 77.61313965 35.03881836 77.77807617 C37.21163494 78.16328443 37.21163494 78.16328443 40 77 C36.66829051 66.31843891 32.03045262 56.8789494 21.75 51.4375 C18.89298731 50.22041259 16.09510523 49.38688815 13 49 Z M-41 100 C-40.63579651 108.0124768 -37.23442016 115.617564 -31.6953125 121.41015625 C-25.63867935 126.45735054 -19.06448647 131 -11 131 C-11.64656856 122.10968231 -13.87022567 113.62806252 -16 105 C-19.41488492 104.15924782 -22.83217213 103.32870007 -26.25 102.5 C-27.21808594 102.26152344 -28.18617188 102.02304688 -29.18359375 101.77734375 C-30.11816406 101.55175781 -31.05273438 101.32617188 -32.015625 101.09375 C-32.87446289 100.88427734 -33.73330078 100.67480469 -34.61816406 100.45898438 C-37.25034699 99.87385288 -37.25034699 99.87385288 -41 100 Z M33.87109375 102.09375 C32.83662109 102.31933594 31.80214844 102.54492188 30.73632812 102.77734375 C29.64771484 103.01582031 28.55910156 103.25429687 27.4375 103.5 C26.34501953 103.73847656 25.25253906 103.97695312 24.12695312 104.22265625 C21.41776583 104.81418186 18.70879312 105.40667237 16 106 C15.13299862 109.76800136 14.28361741 113.53975896 13.4375 117.3125 C13.19064453 118.38435547 12.94378906 119.45621094 12.68945312 120.56054688 C12.46064453 121.58857422 12.23183594 122.61660156 11.99609375 123.67578125 C11.67402954 125.0975769 11.67402954 125.0975769 11.34545898 126.5480957 C10.79596547 129.1303825 10.79596547 129.1303825 12 132 C23.12661404 128.26015687 30.55007506 122.96784312 36.625 112.80078125 C38.55125363 108.87713395 39.36348928 105.31412822 40 101 C37.94080693 101 35.86953608 101.65693201 33.87109375 102.09375 Z " fill="#FBFAFA" transform="translate(760,18)"/>
<path d="M0 0 C12.83680849 9.88882049 20.6320867 22.95031897 23 39 C24.45164633 55.53816986 23.0570475 73.17416245 13 87 C0.97726908 101.08647529 -13.69586889 107.91363018 -32 110 C-46.57646139 111.06457302 -63.26818006 108.26196311 -75 99 C-75 98.34 -75 97.68 -75 97 C-75.598125 96.71125 -76.19625 96.4225 -76.8125 96.125 C-79 95 -79 95 -82 93 C-82 110.82 -82 128.64 -82 147 C-86.19239915 147.83847983 -89.5682359 148.12877864 -93.796875 148.1328125 C-95.08464844 148.13410156 -96.37242188 148.13539063 -97.69921875 148.13671875 C-98.36356934 148.13462402 -99.02791992 148.1325293 -99.71240234 148.13037109 C-101.75756115 148.12498007 -103.80250389 148.13035061 -105.84765625 148.13671875 C-107.77158203 148.13478516 -107.77158203 148.13478516 -109.734375 148.1328125 C-110.91225586 148.13168457 -112.09013672 148.13055664 -113.30371094 148.12939453 C-116 148 -116 148 -117 147 C-117.10894186 145.0260583 -117.14690326 143.04818708 -117.15821838 141.0712738 C-117.17290161 139.13816345 -117.17290161 139.13816345 -117.18788147 137.16600037 C-117.19378644 135.72451819 -117.19959684 134.28303563 -117.20532227 132.84155273 C-117.21489532 131.33403247 -117.22490505 129.82651492 -117.23532104 128.31900024 C-117.26243831 124.2138358 -117.28341081 120.10865979 -117.30332303 116.00345492 C-117.32514066 111.71794428 -117.35254994 107.43246959 -117.37937927 103.14698792 C-117.42936345 95.02615956 -117.47428096 86.9053113 -117.51740164 78.78444391 C-117.56672519 69.54152572 -117.62166137 60.2986436 -117.67708123 51.05576026 C-117.79098913 32.03720697 -117.89780889 13.01861967 -118 -6 C-113.31860746 -6.02465288 -108.63725241 -6.04283739 -103.95581055 -6.05493164 C-102.36205386 -6.05997157 -100.76830181 -6.0668035 -99.17456055 -6.07543945 C-96.88849747 -6.08751999 -94.60249533 -6.09323155 -92.31640625 -6.09765625 C-91.59973282 -6.10281754 -90.88305939 -6.10797882 -90.14466858 -6.11329651 C-88.42936328 -6.11349263 -86.71418734 -6.06192007 -85 -6 C-83.43694509 -4.43694509 -83.69360032 -2.72321782 -83.5 -0.5625 C-83.20853056 2.84497505 -83.20853056 2.84497505 -82 6 C-81.0409375 4.948125 -81.0409375 4.948125 -80.0625 3.875 C-60.19595898 -15.71407537 -22.19606805 -15.22596131 0 0 Z M-74.25 24.25 C-81.86425087 33.58627491 -82.81607023 45.43100436 -82 57 C-80.20073645 67.74695253 -75.42515635 74.97367843 -66.8828125 81.65625 C-58.835198 87.04220212 -50.49922707 87.85548595 -41 87 C-32.21215258 85.25647235 -25.82823699 80.71194079 -20 74 C-13.301619 63.96815239 -11.39781173 52.22942155 -13.6875 40.46875 C-16.31233984 30.23187462 -20.27211337 23.16086115 -29 17 C-45.33224636 8.56309787 -61.51001403 10.74561487 -74.25 24.25 Z " fill="#FDFCFD" transform="translate(135,59)"/>
<path d="M0 0 C4.65499134 4.12066354 7.47252336 8.86452161 10.2578125 14.33984375 C10.59184082 14.99581543 10.92586914 15.65178711 11.27001953 16.32763672 C18.15707469 30.67950823 18.2612609 50.1172963 14.3203125 65.33984375 C9.34129798 79.50549071 -0.03132433 89.40759847 -13.1171875 96.40234375 C-37.01070169 107.48079018 -69.13142279 107.70180376 -93.7421875 98.71484375 C-108.14889345 93.02991924 -118.42182954 83.13258166 -124.93359375 69.19140625 C-131.60791184 53.4638052 -130.72720046 33.9912253 -124.8984375 18.07421875 C-118.09445228 3.33225078 -106.28867512 -5.7992091 -91.34375 -11.53125 C-62.61193782 -21.02735741 -24.45708482 -18.45562305 0 0 Z M-84.4296875 17.46484375 C-91.68925395 26.18500026 -93.57775918 37.4844306 -92.93359375 48.55859375 C-91.87666057 57.71141714 -89.37485433 66.25830382 -82.62890625 72.82421875 C-71.90918365 81.13314094 -61.28999431 82.39097225 -48.1171875 81.40234375 C-38.78529904 79.74707305 -31.40659855 75.27858894 -25.765625 67.55078125 C-18.7313551 56.8965362 -18.29683815 45.08851468 -20.33203125 32.76953125 C-22.45283517 23.6743423 -27.13362723 16.23518657 -35.0625 11.15625 C-51.00177559 2.62404954 -71.61750038 4.36794136 -84.4296875 17.46484375 Z " fill="#FDFCFC" transform="translate(1105.1171875,64.59765625)"/>
<path d="M0 0 C1.0416481 -0.0092601 1.0416481 -0.0092601 2.1043396 -0.01870728 C20.35201846 -0.12290588 38.47824096 3.10739664 53.3125 14.4375 C53.92609375 14.87578125 54.5396875 15.3140625 55.171875 15.765625 C65.36160366 23.61081432 70.12382596 36.1226518 72.3125 48.4375 C73.553967 65.55775803 72.80755165 82.1398934 62.3125 96.4375 C61.79945313 97.14390625 61.28640625 97.8503125 60.7578125 98.578125 C49.67765131 112.46808783 31.38340376 117.41615678 14.51171875 119.83984375 C11.77545449 120.13576566 9.06196562 120.31422233 6.3125 120.4375 C5.219375 120.49035156 4.12625 120.54320312 3 120.59765625 C-18.32835095 121.1262684 -41.59741513 117.17513344 -57.92578125 102.4140625 C-70.25194642 89.55399564 -73.1604295 74.03934771 -73.04125977 56.87890625 C-72.87705865 49.73586541 -72.29169972 43.15359401 -69.6875 36.4375 C-69.35878906 35.58542969 -69.03007812 34.73335937 -68.69140625 33.85546875 C-63.40908102 21.95652852 -53.03873117 12.10851417 -41.25 6.75 C-39.07877808 5.93444152 -36.88932303 5.16641402 -34.6875 4.4375 C-32.90085937 3.84582031 -32.90085937 3.84582031 -31.078125 3.2421875 C-20.85912594 0.27993938 -10.56135399 0.03980168 0 0 Z M-28.6953125 33.69921875 C-36.73840671 44.41773552 -37.78653805 55.4322164 -36.6875 68.4375 C-35.24161963 77.69113436 -30.59312589 85.25986843 -23.5 91.3125 C-14.27382502 97.92894162 -3.7194081 98.31476502 7.3125 97.4375 C16.3689526 95.86299544 24.21583393 91.67444976 29.99609375 84.4609375 C36.51337209 74.44328118 37.75368879 62.07328481 35.81640625 50.46484375 C33.49654996 41.14609898 29.64871905 32.70586194 21.3125 27.4375 C5.20219201 19.57143413 -16.04785963 19.45237982 -28.6953125 33.69921875 Z " fill="#FDFCFC" transform="translate(248.6875,48.5625)"/>
<path d="M0 0 C2 2 2 2 2.24291992 3.95532227 C2.23881104 4.73447998 2.23470215 5.5136377 2.23046875 6.31640625 C2.22853516 7.16267578 2.22660156 8.00894531 2.22460938 8.88085938 C2.21236328 9.76580078 2.20011719 10.65074219 2.1875 11.5625 C2.1865332 12.89571289 2.1865332 12.89571289 2.18554688 14.25585938 C2.14021097 20.85978903 2.14021097 20.85978903 1 22 C-0.83194169 22.12173998 -2.66818923 22.17972902 -4.50390625 22.2109375 C-5.63763672 22.23929688 -6.77136719 22.26765625 -7.93945312 22.296875 C-10.3273292 22.34836559 -12.71536926 22.39280493 -15.10351562 22.4296875 C-22.69970694 22.63533735 -28.93116517 23.14081877 -35.3125 27.625 C-39.83485482 33.98979568 -40.18482613 40.43136992 -40 48 C-39.00556885 48.02505615 -38.0111377 48.0501123 -36.98657227 48.07592773 C-33.30951253 48.16984882 -29.6326485 48.27010619 -25.95581055 48.37231445 C-24.362107 48.41572146 -22.7683552 48.45739219 -21.17456055 48.49731445 C-18.88836092 48.55487807 -16.60240551 48.61861149 -14.31640625 48.68359375 C-13.59973282 48.70030624 -12.88305939 48.71701874 -12.14466858 48.73423767 C-7.11387171 48.88612829 -7.11387171 48.88612829 -6 50 C-5.98334926 51.56423432 -6.03691108 53.12935006 -6.12109375 54.69140625 C-6.16419678 55.54162354 -6.2072998 56.39184082 -6.25170898 57.26782227 C-6.34367554 58.89868774 -6.34367554 58.89868774 -6.4375 60.5625 C-6.7159375 65.7290625 -6.7159375 65.7290625 -7 71 C-18.22 71 -29.44 71 -41 71 C-40.99476318 73.6908374 -40.98952637 76.3816748 -40.98413086 79.15405273 C-40.9675959 88.02291948 -40.95652916 96.89178689 -40.94818783 105.76066494 C-40.94295875 111.14033762 -40.93586065 116.51999458 -40.92456055 121.8996582 C-40.91373255 127.08674843 -40.90772335 132.27382349 -40.90512276 137.46092415 C-40.90326835 139.4445628 -40.89964744 141.42820058 -40.89426994 143.41183281 C-40.88706068 146.18009136 -40.88600901 148.94828638 -40.88647461 151.71655273 C-40.88287933 152.54517319 -40.87928406 153.37379364 -40.87557983 154.2275238 C-40.88594784 159.88594784 -40.88594784 159.88594784 -42 161 C-44.43660446 161.10082764 -46.84424701 161.13972603 -49.28125 161.1328125 C-50.00993286 161.13376923 -50.73861572 161.13472595 -51.48937988 161.13571167 C-53.0327971 161.13639335 -54.57621717 161.13453988 -56.11962891 161.13037109 C-58.489974 161.12502262 -60.86012959 161.13031642 -63.23046875 161.13671875 C-64.72656292 161.13605797 -66.22265697 161.1347768 -67.71875 161.1328125 C-68.43228638 161.13483673 -69.14582275 161.13686096 -69.88098145 161.13894653 C-74.88504809 161.11495191 -74.88504809 161.11495191 -76 160 C-76.09516211 157.2611158 -76.12554594 154.54752059 -76.11352539 151.80834961 C-76.11367142 150.94988937 -76.11381744 150.09142914 -76.1139679 149.20695496 C-76.11326847 146.35539262 -76.1054747 143.50389475 -76.09765625 140.65234375 C-76.09579218 138.68079158 -76.09436822 136.70923895 -76.09336853 134.73768616 C-76.08954251 129.53773733 -76.07971152 124.33781625 -76.06866455 119.13787842 C-76.05845222 113.83606339 -76.05387129 108.5342439 -76.04882812 103.23242188 C-76.03808933 92.82160237 -76.02101191 82.41080349 -76 72 C-76.77714355 72.00523682 -77.55428711 72.01047363 -78.35498047 72.01586914 C-81.86164549 72.03660156 -85.36829763 72.04964821 -88.875 72.0625 C-90.09832031 72.07087891 -91.32164062 72.07925781 -92.58203125 72.08789062 C-93.74863281 72.09111328 -94.91523437 72.09433594 -96.1171875 72.09765625 C-97.73536377 72.10551147 -97.73536377 72.10551147 -99.38623047 72.11352539 C-102 72 -102 72 -104 71 C-104 63.74 -104 56.48 -104 49 C-94.76 49 -85.52 49 -76 49 C-76.061875 46.81375 -76.12375 44.6275 -76.1875 42.375 C-76.28183275 29.94495127 -74.36253719 18.74163802 -65.55859375 9.484375 C-49.75486996 -4.81218167 -19.64551258 -3.33178902 0 0 Z " fill="#FDFCFD" transform="translate(679,4)"/>
<path d="M0 0 C-0.33 10.89 -0.66 21.78 -1 33 C12.2 33 25.4 33 39 33 C39.020625 36.444375 39.04125 39.88875 39.0625 43.4375 C39.071604 44.52474365 39.08070801 45.6119873 39.09008789 46.73217773 C39.09258545 47.58239502 39.09508301 48.4326123 39.09765625 49.30859375 C39.10289307 50.18314209 39.10812988 51.05769043 39.11352539 51.95874023 C39 54 39 54 38 55 C35.1156618 55.08865208 32.25537842 55.11521296 29.37109375 55.09765625 C28.07474754 55.09553383 28.07474754 55.09553383 26.75221252 55.09336853 C23.98060708 55.08775239 21.2090812 55.07519719 18.4375 55.0625 C16.5631522 55.05748708 14.68880315 55.05292381 12.81445312 55.04882812 C8.20960456 55.03777772 3.60481579 55.0205023 -1 55 C-0.93270175 62.65004878 -0.84277916 70.29959845 -0.73754883 77.94921875 C-0.70441196 80.54844214 -0.67634551 83.14773553 -0.65356445 85.74707031 C-0.61981202 89.49574458 -0.56748414 93.24378371 -0.51171875 96.9921875 C-0.50532883 98.14363251 -0.4989389 99.29507751 -0.49235535 100.48141479 C-0.37287996 107.1232251 -0.13471831 113.98937206 3 120 C11.4888674 125.91439934 25.34487329 123.26140914 34.98828125 122.12109375 C35.98408203 122.06115234 35.98408203 122.06115234 37 122 C38 123 38 123 38.11352539 125.04125977 C38.10567017 126.35308228 38.10567017 126.35308228 38.09765625 127.69140625 C38.09282227 129.10776367 38.09282227 129.10776367 38.08789062 130.55273438 C38.07532227 132.04256836 38.07532227 132.04256836 38.0625 133.5625 C38.05798828 134.55958984 38.05347656 135.55667969 38.04882812 136.58398438 C38.03700007 139.05604849 38.02051849 141.52799518 38 144 C32.58017978 145.51983376 27.62958225 146.3082743 21.984375 146.30078125 C21.24729309 146.30506638 20.51021118 146.3093515 19.75079346 146.31376648 C18.20122293 146.3194693 16.65162565 146.32004019 15.10205078 146.31567383 C12.76937549 146.31252615 10.43798679 146.33598002 8.10546875 146.36132812 C-4.02929217 146.41243766 -17.3478175 145.64937632 -26.9375 137.31640625 C-35.59582958 128.3514275 -35.4271722 117.4088396 -35.29296875 105.5859375 C-35.28736115 104.12049803 -35.28309657 102.65505286 -35.28010559 101.18960571 C-35.26874821 97.36566148 -35.23936178 93.54206876 -35.20599365 89.71826172 C-35.17509421 85.80310824 -35.16155815 81.88789698 -35.14648438 77.97265625 C-35.11448141 70.31494534 -35.06339818 62.65752226 -35 55 C-36.35532837 55.05329468 -36.35532837 55.05329468 -37.73803711 55.10766602 C-41.07937816 55.23661797 -44.42082359 55.36097487 -47.76245117 55.48217773 C-49.21076301 55.53566237 -50.65900775 55.59099659 -52.10717773 55.64819336 C-54.18458582 55.72992512 -56.2621417 55.80507768 -58.33984375 55.87890625 C-59.59144287 55.9260376 -60.84304199 55.97316895 -62.13256836 56.02172852 C-65 56 -65 56 -66 55 C-66.08700342 53.36527118 -66.10701063 51.72685945 -66.09765625 50.08984375 C-66.09515869 49.199021 -66.09266113 48.30819824 -66.09008789 47.39038086 C-66.08098389 46.25093018 -66.07187988 45.11147949 -66.0625 43.9375 C-66.041875 40.328125 -66.02125 36.71875 -66 33 C-55.77 33 -45.54 33 -35 33 C-35 25.08 -35 17.16 -35 9 C-30.49999939 7.54929159 -25.99895664 6.10412985 -21.49291992 4.67260742 C-19.96032722 4.1839241 -18.42873926 3.69207808 -16.89819336 3.19702148 C-14.69901405 2.48629806 -12.49648155 1.78699759 -10.29296875 1.08984375 C-9.60849167 0.86594467 -8.92401459 0.64204559 -8.21879578 0.41136169 C-3.34161512 -1.11387171 -3.34161512 -1.11387171 0 0 Z " fill="#FDFCFD" transform="translate(517,20)"/>
<path d="M0 0 C1.02975197 0.01077827 1.02975197 0.01077827 2.08030701 0.02177429 C2.78537888 0.02223251 3.49045074 0.02269073 4.21688843 0.02316284 C5.70726708 0.02618442 7.1976426 0.03406794 8.68797302 0.0464325 C10.97706709 0.06469849 13.26575703 0.06694213 15.55491638 0.06669617 C17.00088344 0.07161098 18.44684775 0.07743915 19.89280701 0.08427429 C20.92559532 0.08594353 20.92559532 0.08594353 21.97924805 0.08764648 C26.80409576 0.13618805 26.80409576 0.13618805 27.92015076 1.25224304 C28.01914345 3.30021565 28.04647385 5.35165971 28.0471344 7.40202332 C28.04869439 8.051457 28.05025438 8.70089068 28.05186164 9.37000418 C28.05587331 11.56189285 28.05268138 13.75371314 28.04954529 15.94560242 C28.05089926 17.51061036 28.05267916 19.07561798 28.05485535 20.640625 C28.05943022 24.90290159 28.0576399 29.16515408 28.05447626 33.42743111 C28.05195294 37.8779469 28.05429012 42.32846057 28.05586243 46.77897644 C28.0576842 54.25428133 28.0552776 61.72957636 28.05052185 69.20487976 C28.04507921 77.86007207 28.04684187 86.51524083 28.05234826 95.17043257 C28.05687916 102.58781877 28.05753005 110.00519787 28.05490959 117.42258501 C28.05334668 121.85870277 28.0531534 126.29480945 28.05644608 130.73092651 C28.05932446 134.90049536 28.05734971 139.0700337 28.05155182 143.23959923 C28.05022404 144.77433407 28.05061863 146.30907146 28.05281448 147.84380531 C28.05552531 149.93005971 28.05214573 152.01621479 28.0471344 154.10246277 C28.04675737 155.27276283 28.04638035 156.4430629 28.0459919 157.6488266 C27.92015076 160.25224304 27.92015076 160.25224304 26.92015076 161.25224304 C24.56786757 161.36541588 22.24603128 161.41640841 19.89280701 161.42021179 C19.18869186 161.42354019 18.48457672 161.42686859 17.75912476 161.43029785 C16.2669897 161.43536959 14.77484326 161.4377061 13.28269958 161.43754578 C10.99564468 161.43973063 8.70907323 161.45787853 6.42210388 161.47685242 C4.97483991 161.47978658 3.52757364 161.48177122 2.08030701 161.48271179 C1.39380569 161.48989731 0.70730438 161.49708282 0 161.50448608 C-4.85102555 161.48106673 -4.85102555 161.48106673 -7.07984924 159.25224304 C-7.33153152 156.55980682 -7.33153152 156.55980682 -7.33381653 153.06486511 C-7.3384965 152.10274195 -7.3384965 152.10274195 -7.34327102 151.12118196 C-7.3512768 148.96230278 -7.34491753 146.80370267 -7.33863831 144.64482117 C-7.34134703 143.10099116 -7.34490729 141.55716244 -7.34925842 140.01333618 C-7.35839884 135.813009 -7.3548314 131.61277975 -7.34850025 127.41245079 C-7.34344878 123.02379969 -7.34812932 118.63515716 -7.35127258 114.24650574 C-7.35491473 106.87551869 -7.35010664 99.50457167 -7.34059143 92.1335907 C-7.3297064 83.60277298 -7.3332318 75.07205085 -7.34424424 66.54123545 C-7.35331006 59.22656639 -7.35460586 51.91192618 -7.3493669 44.59725332 C-7.34624331 40.22426378 -7.34584849 35.85131921 -7.35243988 31.47833252 C-7.35820249 27.36780875 -7.35423646 23.25740863 -7.34265137 19.14689827 C-7.33999895 17.63516 -7.34077974 16.12341138 -7.3451767 14.61167717 C-7.35061085 12.55418294 -7.34382449 10.49708941 -7.33381653 8.43962097 C-7.33306248 7.28629021 -7.33230843 6.13295944 -7.33153152 4.94467926 C-6.86799898 -0.01407984 -4.42041267 0.02134048 0 0 Z " fill="#FDFCFD" transform="translate(859.0798492431641,3.7477569580078125)"/>
<path d="M0 0 C1.10730469 -0.01224609 2.21460938 -0.02449219 3.35546875 -0.03710938 C4.43957031 -0.03904297 5.52367187 -0.04097656 6.640625 -0.04296875 C8.11063965 -0.04913208 8.11063965 -0.04913208 9.61035156 -0.05541992 C12.75 0.1875 12.75 0.1875 20.75 2.1875 C20.75 10.4375 20.75 18.6875 20.75 27.1875 C17.69396007 28.20617998 15.78124501 28.26400981 12.59375 28.1796875 C11.57023437 28.16292969 10.54671875 28.14617187 9.4921875 28.12890625 C7.36178936 28.08527159 5.23154041 28.03343726 3.1015625 27.97265625 C-6.87639815 27.83580143 -15.43736646 29.38192252 -23.69140625 35.19921875 C-25.25 36.1875 -25.25 36.1875 -27.25 36.1875 C-27.5284375 36.92097656 -27.806875 37.65445313 -28.09375 38.41015625 C-29.15505029 40.95942822 -30.38783303 43.22874896 -31.75 45.625 C-38.28435491 58.90008453 -36.6408076 75.57037369 -36.8125 90 C-36.85646589 93.31954507 -36.90300957 96.63899522 -36.95530701 99.9584198 C-36.98723497 102.01052057 -37.01413411 104.06270693 -37.03553772 106.11494446 C-37.04902756 107.03067734 -37.0625174 107.94641022 -37.07641602 108.88989258 C-37.09068382 110.10229362 -37.09068382 110.10229362 -37.10523987 111.33918762 C-37.25 113.1875 -37.25 113.1875 -38.25 114.1875 C-40.61398468 114.2882812 -42.94811311 114.32723215 -45.3125 114.3203125 C-46.01898682 114.32126923 -46.72547363 114.32222595 -47.45336914 114.32321167 C-48.94970793 114.32389333 -50.44604967 114.32204005 -51.94238281 114.31787109 C-54.24030157 114.31252257 -56.53802486 114.31781651 -58.8359375 114.32421875 C-60.28645877 114.32355797 -61.73697991 114.3222768 -63.1875 114.3203125 C-64.2249939 114.32334885 -64.2249939 114.32334885 -65.28344727 114.32644653 C-70.13504776 114.30245224 -70.13504776 114.30245224 -71.25 113.1875 C-71.37518028 110.64231645 -71.43606834 108.1229463 -71.45532227 105.57617188 C-71.46522186 104.7773761 -71.47512146 103.97858032 -71.48532104 103.15557861 C-71.51712478 100.4891665 -71.54181425 97.82273765 -71.56640625 95.15625 C-71.58700653 93.28942436 -71.60800375 91.42260306 -71.62937927 89.55578613 C-71.67347039 85.61794512 -71.7143393 81.6800886 -71.75268555 77.7421875 C-71.80112296 72.76994743 -71.85482319 67.79778454 -71.91065407 62.82562256 C-72.13709725 42.61263362 -72.32963447 22.4020152 -72.25 2.1875 C-67.56860746 2.16284712 -62.88725241 2.14466261 -58.20581055 2.13256836 C-56.61205386 2.12752843 -55.01830181 2.1206965 -53.42456055 2.11206055 C-51.13849747 2.09998001 -48.85249533 2.09426845 -46.56640625 2.08984375 C-45.84973282 2.08468246 -45.13305939 2.07952118 -44.39466858 2.07420349 C-42.67936328 2.07400737 -40.96418734 2.12557993 -39.25 2.1875 C-38.25 3.1875 -38.25 3.1875 -38.15234375 6.56640625 C-38.15901631 7.96097077 -38.17097468 9.35551743 -38.1875 10.75 C-38.19201172 11.46091797 -38.19652344 12.17183594 -38.20117188 12.90429688 C-38.21299136 14.66540013 -38.23092737 16.42646036 -38.25 18.1875 C-37.59 18.1875 -36.93 18.1875 -36.25 18.1875 C-35.9715625 17.1665625 -35.9715625 17.1665625 -35.6875 16.125 C-31.67263946 7.92071976 -24.5412999 4.26023289 -16.25 1.1875 C-10.9633031 -0.41411898 -5.47271868 0.00314163 0 0 Z " fill="#FCFCFC" transform="translate(412.25,50.8125)"/>
<path d="M0 0 C11.22 0 22.44 0 34 0 C34 36.63 34 73.26 34 111 C31.04189524 112.47905238 28.0452845 112.12190903 24.8046875 112.09765625 C24.09724396 112.0962413 23.38980042 112.09482635 22.66091919 112.09336853 C20.39890331 112.087766 18.13698602 112.07521318 15.875 112.0625 C14.34244935 112.05748532 12.80989714 112.05292236 11.27734375 112.04882812 C7.51819112 112.03779577 3.75911228 112.02052952 0 112 C-1.1770506 109.6458988 -1.12574785 108.25252598 -1.12698364 105.62815857 C-1.13121338 104.25048813 -1.13121338 104.25048813 -1.13552856 102.84498596 C-1.13350433 101.83451706 -1.1314801 100.82404816 -1.12939453 99.78295898 C-1.13114685 98.72113403 -1.13289917 97.65930908 -1.13470459 96.56530762 C-1.13911955 93.04221989 -1.13618656 89.51918202 -1.1328125 85.99609375 C-1.13348559 83.55754079 -1.13445566 81.11898791 -1.13571167 78.68043518 C-1.13718812 73.56502647 -1.13503558 68.4496352 -1.13037109 63.33422852 C-1.12467083 56.76080915 -1.12795504 50.18743059 -1.13394356 43.61401272 C-1.13754802 38.5776183 -1.13641117 33.54123364 -1.13381577 28.50483894 C-1.13314633 26.08021096 -1.13397548 23.65558209 -1.13629532 21.23095512 C-1.13882028 17.84982818 -1.13498359 14.46876839 -1.12939453 11.08764648 C-1.13141876 10.07515335 -1.13344299 9.06266022 -1.13552856 8.01948547 C-1.13129883 6.64604477 -1.13129883 6.64604477 -1.12698364 5.24485779 C-1.12660662 4.44457374 -1.12622959 3.64428968 -1.12584114 2.8197546 C-1 1 -1 1 0 0 Z " fill="#FDFCFC" transform="translate(918,53)"/>
<path d="M0 0 C0.70412521 0.00202423 1.40825043 0.00404846 2.13371277 0.00613403 C2.85528061 0.00517731 3.57684845 0.00422058 4.32028198 0.00323486 C5.85111071 0.00255292 7.3819423 0.00440819 8.9127655 0.00857544 C11.25015327 0.01390034 13.58734683 0.00864306 15.92472839 0.00222778 C17.41105694 0.00288902 18.89738537 0.00417112 20.38371277 0.00613403 C21.08176529 0.0041098 21.77981781 0.00208557 22.49902344 0 C25.79643623 0.01581663 28.80447348 0.12326374 31.95793152 1.13894653 C31.9867949 5.61809981 32.00468339 10.09722944 32.02043152 14.57644653 C32.02881042 15.85584106 32.03718933 17.1352356 32.04582214 18.45339966 C32.0490448 19.66834106 32.05226746 20.88328247 32.05558777 22.13504028 C32.06082458 23.26095581 32.0660614 24.38687134 32.07145691 25.54690552 C31.95793152 28.13894653 31.95793152 28.13894653 30.95793152 29.13894653 C28.21899067 29.22753299 25.50539882 29.25418132 22.76652527 29.23660278 C21.94668655 29.23518784 21.12684784 29.23377289 20.28216553 29.23231506 C17.6532177 29.22669943 15.02435378 29.21414433 12.39543152 29.20144653 C10.61743795 29.19643355 8.83944306 29.19187029 7.06144714 29.18777466 C2.69357607 29.17672492 -1.67423196 29.15944985 -6.04206848 29.13894653 C-6.06672729 25.16963664 -6.08490871 21.20035619 -6.09700012 17.23098755 C-6.10203905 15.87974267 -6.10887025 14.52850327 -6.11750793 13.17727661 C-6.12959267 11.23874219 -6.13476676 9.30016853 -6.13972473 7.36160278 C-6.14496155 6.19379272 -6.15019836 5.02598267 -6.15559387 3.82278442 C-5.96043386 -0.79096605 -4.13986555 0.02014752 0 0 Z " fill="#FBFAFB" transform="translate(922.0420684814453,3.861053466796875)"/>
<path d="M0 0 C0.33 0 0.66 0 1 0 C0.59128562 8.68518048 -1.61864208 16.69293749 -4 25 C-4.99 24.67 -5.98 24.34 -7 24 C-5.68 19.05 -4.36 14.1 -3 9 C-6.96 9 -10.92 9 -15 9 C-15 8.67 -15 8.34 -15 8 C-10.38 7.67 -5.76 7.34 -1 7 C-0.67 4.69 -0.34 2.38 0 0 Z " fill="#C9BFBF" transform="translate(755,41)"/>
<path d="M0 0 C0.66 0.33 1.32 0.66 2 1 C1.50628906 1.47050781 1.01257813 1.94101562 0.50390625 2.42578125 C-0.13675781 3.04839844 -0.77742187 3.67101563 -1.4375 4.3125 C-2.07558594 4.92738281 -2.71367188 5.54226562 -3.37109375 6.17578125 C-5.2221418 8.00644056 -5.2221418 8.00644056 -6 11 C-6.66 11.309375 -7.32 11.61875 -8 11.9375 C-8.66 12.288125 -9.32 12.63875 -10 13 C-10.144375 13.639375 -10.28875 14.27875 -10.4375 14.9375 C-11 17 -11 17 -13.5625 18.75 C-14.366875 19.1625 -15.17125 19.575 -16 20 C-13.32383855 11.43628337 -6.76605166 5.49527038 0 0 Z " fill="#F2EFF1" transform="translate(709,60)"/>
<path d="M0 0 C0.33 1.32 0.66 2.64 1 4 C4.63 4 8.26 4 12 4 C12 4.33 12 4.66 12 5 C8.7 5 5.4 5 2 5 C2.61667207 7.46070116 3.24288393 9.91826521 3.875 12.375 C4.13603516 13.42300781 4.13603516 13.42300781 4.40234375 14.4921875 C5.44145274 18.64874736 5.44145274 18.64874736 8 22 C7.34 22 6.68 22 6 22 C6 23.65 6 25.3 6 27 C5.67 27 5.34 27 5 27 C4.15771542 23.43955555 3.32776097 19.87634656 2.5 16.3125 C2.14228516 14.80139648 2.14228516 14.80139648 1.77734375 13.25976562 C1.55175781 12.28330078 1.32617188 11.30683594 1.09375 10.30078125 C0.88427734 9.40528564 0.67480469 8.50979004 0.45898438 7.5871582 C0.00005488 5.00030935 -0.08261971 2.62111026 0 0 Z " fill="#D0CBCA" transform="translate(767,45)"/>
<path d="M0 0 C0.66 0 1.32 0 2 0 C1.44854729 5.23880078 0.57077907 9.97350697 -1 15 C-0.34 15.33 0.32 15.66 1 16 C-0.32 16.33 -1.64 16.66 -3 17 C-2.54775239 11.08507728 -1.8417395 5.64800112 0 0 Z " fill="#C9C1BF" transform="translate(769,152)"/>
<path d="M0 0 C0.33 0 0.66 0 1 0 C1.04898438 0.60328125 1.09796875 1.2065625 1.1484375 1.828125 C1.22320312 2.62734375 1.29796875 3.4265625 1.375 4.25 C1.44460937 5.03890625 1.51421875 5.8278125 1.5859375 6.640625 C2.01507113 9.085877 2.78600638 10.84836903 4 13 C2.02 13.99 2.02 13.99 0 15 C-1.09651823 11.58860997 -0.94215473 8.79344419 -0.5625 5.25 C-0.46066406 4.26515625 -0.35882813 3.2803125 -0.25390625 2.265625 C-0.17011719 1.51796875 -0.08632813 0.7703125 0 0 Z " fill="#ECE2E9" transform="translate(50,54)"/>
<path d="M0 0 C-1.33333333 1.33333333 -2.66666667 2.66666667 -4 4 C-4 3.01 -4 2.02 -4 1 C-7.96 1 -11.92 1 -16 1 C-16 0.67 -16 0.34 -16 0 C-14.08416353 -0.1958009 -12.16727461 -0.38132214 -10.25 -0.5625 C-8.64898437 -0.71912109 -8.64898437 -0.71912109 -7.015625 -0.87890625 C-4.35858796 -0.98560074 -2.50039428 -0.81930395 0 0 Z " fill="#EAE9E9" transform="translate(98,146)"/>
<path d="M0 0 C3.31012244 3.31012244 3.50351065 4.53159589 4 9 C3.01 9 2.02 9 1 9 C0.67 6.03 0.34 3.06 0 0 Z " fill="#E6E3E5" transform="translate(758,186)"/>
<path d="M0 0 C0.4125 0.61875 0.825 1.2375 1.25 1.875 C3.05573879 4.06768281 4.4090534 4.92788417 7 6 C4.08517222 6.80967438 2.53886783 7.21845993 -0.3125 6.0625 C-0.869375 5.711875 -1.42625 5.36125 -2 5 C-1.34 4.67 -0.68 4.34 0 4 C0 2.68 0 1.36 0 0 Z " fill="#D1C9CA" transform="translate(799,91)"/>
<path d="M0 0 C3.625 0.375 3.625 0.375 7 1 C7 1.66 7 2.32 7 3 C4.03 2.67 1.06 2.34 -2 2 C-1.34 1.34 -0.68 0.68 0 0 Z " fill="#D3C7C5" transform="translate(710,115)"/>
<path d="M0 0 C2.29632557 4.43956276 3.20238143 7.05687635 2 12 C-0.60018816 8.09971775 -0.15085514 4.52565431 0 0 Z " fill="#E6E7E6" transform="translate(687,112)"/>
</svg>
